<svg id="Слой_1" data-name="Слой 1" xmlns="http://www.w3.org/2000/svg" viewBox="0 0 471.16 242.39"><defs><style>.cls-1{fill:#e52421;}.cls-2{fill:#1d1d1b;}</style></defs><polygon class="cls-1" points="0 0.13 0 140.82 13.65 140.82 13.38 79.72 38.75 44.83 38.75 140.82 51.08 140.82 51.08 0.29 13.54 52.15 13.54 0.27 0 0.13"/><polygon class="cls-1" points="70.68 0.13 70.68 140.82 83.89 140.82 83.89 72.13 108.11 72.13 108.11 140.82 123.3 140.82 123.3 0.13 108.55 0.13 108.11 56.27 83.67 56.72 84.11 0.13 70.68 0.13"/><polygon class="cls-1" points="133.65 0.13 133.65 15.32 150.61 15.32 150.61 141.93 165.14 141.93 165.14 15.32 182.97 15.32 182.97 0.13 133.65 0.13"/><polygon class="cls-1" points="192.88 0.13 192.88 141.93 233.14 141.93 233.14 127.39 207.63 127.17 207.85 72.13 230.31 72.35 230.09 59.36 207.85 59.36 208.29 14.44 229.65 14.44 229.87 0.13 192.88 0.13"/>
<path class="cls-1" d="M302.1,109.23V251h15.41V226.15s32.81-16.07,32.15-59.23S314.65,107.47,302.1,109.23Zm15,97.1V131.91S361.33,167.8,317.07,206.33Z" transform="translate(-53.95 -109.1)"/>
<path d="M244.31,301.53q-1,0-2.07-.06c-3.88-.21-11.94-.65-14.37-6.1a8.78,8.78,0,0,1-.09-6.42c1.19-3.65,5-8.54,16.54-11.08S265.74,279,273.69,282c1.49.56,2.94,1.09,4.34,1.57q1.23.42,2.49.81l90.12-69.87c-2.34-2.8-6.35-5.05-11.78-6.57-18.15-5.07-50.85-1-74.14,14.52-13.28,8.86-22,19.37-20.57,22.5.77,1.76,6,2.69,12.21,2.17,20.16-1.69,33.63-23.88,38.49-33.34a2.5,2.5,0,0,1,4.45,2.28c-5.24,10.21-19.87,34.14-42.53,36-5.37.45-14.75.38-17.19-5.12-4.65-10.5,22.09-28.51,22.36-28.69,25.41-17,59.29-20.47,78.26-15.17,6.49,1.81,11.39,4.65,14.39,8.31L388,201.05a2.51,2.51,0,0,1,3.07,4L377.12,215.8a19.25,19.25,0,0,1,.63,2.19c2.56,11.07-.91,26-9.28,39.94-9,14.92-22.3,26.35-36.59,31.35s-33.56,5.15-50.39.57C271.46,295.29,257.17,301.53,244.31,301.53ZM252.17,282a31,31,0,0,0-6.78.74c-9.68,2.13-12.21,5.76-12.86,7.74a4.19,4.19,0,0,0-.09,2.83c1.19,2.66,7.64,3,10.07,3.15,10.54.57,22.69-4,32.25-8.77l-2.82-1C266,284.46,259.47,282,252.17,282Zm34.44,4c14.92,3.35,31.26,2.92,43.62-1.41,28.28-9.9,47.41-44.84,42.65-65.44v0Z" transform="translate(-53.95 -109.1)"/>
<path d="M369.86,299.76a8.21,8.21,0,0,1-5.82-2.09c-4.47-4.13-2.37-11.64,5.75-20.61,8.48-9.37,24.28-20.34,31.29-14.14h0c1.5,1.33,3.11,3.81,2.22,8-2.21,10.42-18,24.6-28.62,28A16,16,0,0,1,369.86,299.76Zm25.93-33.69c-4.61,0-14.39,5.61-22.29,14.34-5.57,6.15-8.07,11.74-6.07,13.59,1.39,1.29,4.19.66,5.74.17,9.67-3.08,23.59-16.44,25.23-24.24.48-2.28-.33-3-.63-3.27h0A2.94,2.94,0,0,0,395.79,266.07Z" transform="translate(-53.95 -109.1)"/>
<path d="M421.48,296.81a21.71,21.71,0,0,1-2.54-.14c-3.92-.48-5.37-2.43-5.9-4-1.05-3.11,1-7.08,3.39-10.38a64.27,64.27,0,0,1-18.21.6,12.92,12.92,0,0,1-1.62-.31,2.5,2.5,0,0,1-3.71-1.71,9.22,9.22,0,0,1-3.45-8.6c.6-5.22,4.84-10.49,10.21-10a4.74,4.74,0,0,1,4.17,2.77c1.49,3.36-1.22,8.89-3.83,13,10.52,1.09,22.43-2.12,22.55-2.16a2.5,2.5,0,0,1,2.41,4.2c-4.28,4.19-7.7,9.41-7.17,11,.05.16.58.48,1.76.62,8,1,28.21-4.13,47.68-18.72,2.84-2.31,5.85-4.77,8.47-7q3.45-3.17,6.76-6.79a2.5,2.5,0,0,1,3.91,3.1,46.65,46.65,0,0,1-7.31,7.4,112.56,112.56,0,0,1-9.08,7.54c-4.58,3.73-10.81,8.83-13.37,11.74,9.86-1.55,35.59-17.78,45.13-24.23a2.5,2.5,0,0,1,2.81,4.14C492,277.39,481,287.21,480.46,290.31a4.16,4.16,0,0,0,.88.2c12.6,1.73,39.86-12.17,40.13-12.31a2.5,2.5,0,0,1,2.29,4.45c-1.18.6-28.94,14.75-43.1,12.82-3.59-.49-4.76-2.34-5.1-3.81s-.19-3.28,2-6.29c-8.76,4.76-17.44,8.67-22.29,8.67-3,0-4.13-1.36-4.54-2.5a3.8,3.8,0,0,1,.12-2.8C438.84,294.42,428.1,296.81,421.48,296.81ZM399,267.27c-2,0-4.22,2.63-4.56,5.58a4.48,4.48,0,0,0,.81,3.37c2.47-3.8,4.21-7.56,4.07-8.93H399Z" transform="translate(-53.95 -109.1)"/>
<path class="cls-2" d="M129.61,334h3.83l3.11,8.64c.43,1.28,1.17,3.37,1.56,4.71h.07c.39-1.27,1.35-4,2-5.88L143,334h3.86L148,351.1h-3l-.39-8.18c-.1-1.84-.25-4-.32-6.13h-.1c-.46,1.56-.92,2.94-1.88,5.56L139.07,351H136.8l-3-8.46c-.54-1.63-1.28-4.11-1.7-5.7h-.15c-.07,2-.17,4.28-.28,6.16l-.42,8.11h-2.87Z" transform="translate(-53.95 -109.1)"/>
<path class="cls-2" d="M153.8,343.1c.07,4.21,2.76,5.95,5.87,5.95a11.19,11.19,0,0,0,4.75-.89l.53,2.23a13.81,13.81,0,0,1-5.7,1.06c-5.28,0-8.43-3.47-8.43-8.64s3.05-9.24,8-9.24c5.59,0,7.08,4.92,7.08,8.08a13.4,13.4,0,0,1-.1,1.45Zm9.13-2.23c0-2-.81-5.07-4.32-5.07-3.15,0-4.53,2.91-4.78,5.07Z" transform="translate(-53.95 -109.1)"/>
<path class="cls-2" d="M182.94,328.16a23.58,23.58,0,0,1-3.58.77c-2.76.43-4.78,1.35-6.09,3.23a12.15,12.15,0,0,0-1.87,5.66h.1a6.49,6.49,0,0,1,5.95-3.86c4.21,0,7.29,3,7.29,8.47s-2.9,9.06-7.93,9.06c-6,0-8-5.77-8-11.47,0-3.9.81-7.08,2.66-9.49,1.66-2.37,4-3.47,7.36-4a24.32,24.32,0,0,0,4.25-.92Zm-6.13,8.1A4.17,4.17,0,0,0,173,338.6a7.6,7.6,0,0,0-.85,3.65c0,2.83,1.38,6.9,4.78,6.9s4.71-3.33,4.71-6.48C181.59,339.88,180.5,336.26,176.81,336.26Z" transform="translate(-53.95 -109.1)"/>
<path class="cls-2" d="M190.41,343.1c.07,4.21,2.76,5.95,5.88,5.95a11.17,11.17,0,0,0,4.74-.89l.53,2.23a13.77,13.77,0,0,1-5.7,1.06c-5.27,0-8.42-3.47-8.42-8.64s3-9.24,8-9.24c5.6,0,7.09,4.92,7.09,8.08a12.89,12.89,0,0,1-.11,1.45Zm9.14-2.23c0-2-.82-5.07-4.32-5.07-3.16,0-4.54,2.91-4.78,5.07Z" transform="translate(-53.95 -109.1)"/>
<path class="cls-2" d="M219.45,334V351.1h-3.09V336.41h-5.87v4.46c0,4.81-.46,8-2.69,9.49a5,5,0,0,1-3.4,1.06l-.32-2.44a4,4,0,0,0,1.7-.71c1.59-1.17,1.77-3.58,1.77-7.4V334Z" transform="translate(-53.95 -109.1)"/>
<path class="cls-2" d="M227.55,334v5.81a17.62,17.62,0,0,1,2.84-.18c3.86,0,7.93,1.21,7.93,5.77a4.85,4.85,0,0,1-1.81,3.93c-1.87,1.6-4.92,2-7.43,2a42.94,42.94,0,0,1-4.61-.25V334Zm0,15a18.42,18.42,0,0,0,2.31.14c2.33,0,5.34-.78,5.34-3.65s-3.11-3.61-5.42-3.61a14.19,14.19,0,0,0-2.23.18Z" transform="translate(-53.95 -109.1)"/>
<path class="cls-2" d="M245.19,334v6.91h8.14V334h3.08V351.1h-3.08v-7.75h-8.14v7.75h-3.08V334Z" transform="translate(-53.95 -109.1)"/><path class="cls-2" d="M277,342.39c0,6.34-4.39,9.1-8.53,9.1-4.64,0-8.22-3.4-8.22-8.82,0-5.73,3.76-9.1,8.5-9.1C273.69,333.57,277,337.15,277,342.39Zm-13.6.18c0,3.75,2.16,6.58,5.21,6.58s5.2-2.79,5.2-6.65c0-2.91-1.45-6.59-5.13-6.59S263.42,339.31,263.42,342.57Z" transform="translate(-53.95 -109.1)"/><path class="cls-2" d="M282.69,343.1c.07,4.21,2.76,5.95,5.87,5.95a11.23,11.23,0,0,0,4.75-.89l.53,2.23a13.81,13.81,0,0,1-5.7,1.06c-5.28,0-8.43-3.47-8.43-8.64s3.05-9.24,8-9.24c5.59,0,7.08,4.92,7.08,8.08a10.86,10.86,0,0,1-.11,1.45Zm9.13-2.23c0-2-.81-5.07-4.32-5.07-3.15,0-4.53,2.91-4.78,5.07Z" transform="translate(-53.95 -109.1)"/><path class="cls-2" d="M317,351.1l-.25-2.16h-.1a6.38,6.38,0,0,1-5.24,2.55,4.88,4.88,0,0,1-5.24-4.92c0-4.14,3.68-6.41,10.3-6.38v-.35c0-1.42-.39-4-3.89-4a8.5,8.5,0,0,0-4.46,1.28l-.71-2a10.54,10.54,0,0,1,5.63-1.53c5.24,0,6.51,3.58,6.51,7V347a23.36,23.36,0,0,0,.29,4.11Zm-.46-8.75c-3.4-.07-7.26.54-7.26,3.86a2.76,2.76,0,0,0,2.94,3,4.28,4.28,0,0,0,4.15-2.87,3.43,3.43,0,0,0,.17-1Z" transform="translate(-53.95 -109.1)"/><path class="cls-2" d="M335.94,334v2.48H330.6V351.1h-3.09V336.44h-5.34V334Z" transform="translate(-53.95 -109.1)"/><path class="cls-2" d="M339.94,343.1c.07,4.21,2.77,5.95,5.88,5.95a11.23,11.23,0,0,0,4.75-.89l.53,2.23a13.85,13.85,0,0,1-5.7,1.06c-5.28,0-8.43-3.47-8.43-8.64s3-9.24,8-9.24c5.59,0,7.08,4.92,7.08,8.08a10.86,10.86,0,0,1-.11,1.45Zm9.14-2.23c0-2-.82-5.07-4.32-5.07-3.15,0-4.53,2.91-4.78,5.07Z" transform="translate(-53.95 -109.1)"/><path class="cls-2" d="M369,334V351.1H365.9V336.41H360v4.46c0,4.81-.46,8-2.69,9.49a5,5,0,0,1-3.4,1.06l-.32-2.44a3.94,3.94,0,0,0,1.7-.71c1.59-1.17,1.77-3.58,1.77-7.4V334Z" transform="translate(-53.95 -109.1)"/><path class="cls-2" d="M377.09,334v5.81a17.49,17.49,0,0,1,2.83-.18c3.86,0,7.93,1.21,7.93,5.77a4.87,4.87,0,0,1-1.8,3.93c-1.88,1.6-4.93,2-7.44,2A42.59,42.59,0,0,1,374,351V334Zm0,15a18.1,18.1,0,0,0,2.3.14c2.34,0,5.35-.78,5.35-3.65s-3.12-3.61-5.42-3.61a14.09,14.09,0,0,0-2.23.18Z" transform="translate(-53.95 -109.1)"/><path class="cls-2" d="M393.45,343.1c.07,4.21,2.76,5.95,5.87,5.95a11.23,11.23,0,0,0,4.75-.89l.53,2.23a13.85,13.85,0,0,1-5.7,1.06c-5.28,0-8.43-3.47-8.43-8.64s3-9.24,8-9.24c5.59,0,7.08,4.92,7.08,8.08a10.86,10.86,0,0,1-.11,1.45Zm9.13-2.23c0-2-.81-5.07-4.32-5.07-3.15,0-4.53,2.91-4.78,5.07Z" transform="translate(-53.95 -109.1)"/>
</svg>